<svg id="Mountain" xmlns="http://www.w3.org/2000/svg" viewBox="0 0 1864 457"><defs><style>.cls-1{stroke:#000;stroke-miterlimit:10;}</style></defs><path class="cls-1" d="M1837.5,436.27c0,.16.1.32.14.47C1837.6,436.59,1837.55,436.43,1837.5,436.27Z"/><path class="cls-1" d="M1838.13,438.53c0,.06,0,.12,0,.18S1838.15,438.59,1838.13,438.53Z"/><path class="cls-1" d="M1833,426.45l.35.55Z"/><path class="cls-1" d="M1836.1,432.37c.06.13.11.27.16.4C1836.21,432.64,1836.16,432.5,1836.1,432.37Z"/><path class="cls-1" d="M1836.83,434.27c.07.17.12.34.18.51C1837,434.61,1836.9,434.44,1836.83,434.27Z"/><path class="cls-1" d="M1839,442.93c0,.09,0,.19,0,.28C1839.06,443.12,1839.05,443,1839,442.93Z"/><path class="cls-1" d="M1839.78,454.33v0Z"/><path class="cls-1" d="M1839.69,456.64v0Z"/><path class="cls-1" d="M1839.57,447.36c0,.06,0,.13,0,.19S1839.58,447.42,1839.57,447.36Z"/><path class="cls-1" d="M1839.34,445.07c0,.11,0,.23,0,.35C1839.36,445.3,1839.35,445.18,1839.34,445.07Z"/><path class="cls-1" d="M-2.84,457.5h4l81.72-80,28,27,63-72L194,357l10.88-18.5,9,14,41-49,29,27,54-69,72,40,108-112,20,20,29-30,46,41,98-85,81,83,45-51,27,29,55.54-61,95.46,91,19-28,17,24,41-60,59,80,57,18,26-37,30,31,47-24,43,26,75,80,15-22,16,24,30-41,18,28,38-62,48,73,15-27,11,13,32,22L1695,303l78.87,89.5,28-35.5,64.71,98.13a5.54,5.54,0,0,0,.09-6.27l-64.9-98.42a5.58,5.58,0,0,0-9-.39l-19.11,24.21a5.58,5.58,0,0,1-8.56.23l-70.61-80.12a5.58,5.58,0,0,0-8-.33l-35.64,34.31a5.59,5.59,0,0,1-7,.57l-27.63-19a5.45,5.45,0,0,1-1.1-1l-5.31-6.27a5.57,5.57,0,0,0-9.13.89l-6.61,11.9a5.57,5.57,0,0,1-9.53.36l-38.12-58a5.57,5.57,0,0,0-9.41.15l-28.77,46.94a5.57,5.57,0,0,1-9.44.1l-8.81-13.7a5.58,5.58,0,0,0-9.19-.27l-20.49,28a5.58,5.58,0,0,1-9.14-.2l-7-10.48a5.58,5.58,0,0,0-9.25-.05l-6.42,9.42a5.58,5.58,0,0,1-8.68.68L1350,244.06a5.83,5.83,0,0,0-1.19-1l-39.68-24a5.57,5.57,0,0,0-5.42-.2l-40.57,20.71a5.57,5.57,0,0,1-6.54-1.08l-22.44-23.19a5.57,5.57,0,0,0-8.57.67l-19.77,28.14a5.58,5.58,0,0,1-6.24,2.11l-51.38-16.22a5.63,5.63,0,0,1-2.81-2l-53.26-72.22a5.57,5.57,0,0,0-9.09.16l-32,46.9a5.57,5.57,0,0,1-9.15.08l-7.72-10.9a5.58,5.58,0,0,0-9.17.09l-10.78,15.9a5.58,5.58,0,0,1-8.46.91l-86.58-82.52a5.57,5.57,0,0,0-8,.28L863.58,179a5.59,5.59,0,0,1-8.21,0L836.69,159a5.58,5.58,0,0,0-8.26.11l-37,41.89a5.58,5.58,0,0,1-8.17.2l-73.13-74.94a5.58,5.58,0,0,0-7.64-.32L612.2,204.29a5.59,5.59,0,0,1-7.36,0L566.5,170.06a5.58,5.58,0,0,0-7.72.29l-21.34,22.07a5.58,5.58,0,0,1-8,.07l-12-12a5.57,5.57,0,0,0-7.95.08L408.47,285.42a5.58,5.58,0,0,1-6.72,1l-64.09-35.61a5.58,5.58,0,0,0-7.1,1.44l-47.32,60.47a5.57,5.57,0,0,1-8.19.64L254.8,294.51a5.57,5.57,0,0,0-8.07.5l-32.36,38.68a5.58,5.58,0,0,1-9-.57h0a5.57,5.57,0,0,0-9.49.19l-2.25,3.81a5.57,5.57,0,0,1-9.11.71l-10.88-13.25a5.57,5.57,0,0,0-8.5-.13L110.35,387.1a5.57,5.57,0,0,1-8.06.34L82.4,368.26a5.58,5.58,0,0,0-7.77,0L-6.74,447.94A5.58,5.58,0,0,0-2.84,457.5Z"/><path class="cls-1" d="M1834.12,428.27l.25.45Z"/><path class="cls-1" d="M1817.93,413.47l.73.34Z"/><path class="cls-1" d="M1831.9,424.77l.37.53Z"/><path class="cls-1" d="M1820.1,414.54c.17.09.36.18.53.28C1820.46,414.72,1820.27,414.63,1820.1,414.54Z"/><path class="cls-1" d="M1813.52,411.76l.72.25Z"/><path class="cls-1" d="M1815.77,412.56l.78.32Z"/><path class="cls-1" d="M1822.48,415.91l.34.23Z"/><path class="cls-1" d="M1824.23,417.1l.57.42Z"/><path class="cls-1" d="M1829.14,421.42l.24.25Z"/><path class="cls-1" d="M1830.69,423.19c.1.12.19.25.29.38C1830.88,423.44,1830.79,423.31,1830.69,423.19Z"/><path class="cls-1" d="M1825.89,418.38l.57.48Z"/><path class="cls-1" d="M1828,420.23l-.49-.46Z"/></svg>