<svg xmlns="http://www.w3.org/2000/svg" xmlns:xlink="http://www.w3.org/1999/xlink" viewBox="0 0 1888.88 346.42"><defs><style>.cls-1{stroke:#000;stroke-miterlimit:10;}.cls-2{mask:url(#mask);}.cls-3{fill:#fff;}.cls-4{mask:url(#mask-2);}.cls-5{font-size:105px;font-family:Luminari-Regular, Luminari;}.cls-6{letter-spacing:-0.03em;}.cls-7{filter:url(#luminosity-invert-noclip-2);}.cls-8{filter:url(#luminosity-invert-noclip);}</style><filter id="luminosity-invert-noclip" x="-14.16" y="-8432" width="1888.88" height="32766" filterUnits="userSpaceOnUse" color-interpolation-filters="sRGB"><feColorMatrix values="-1 0 0 0 1 0 -1 0 0 1 0 0 -1 0 1 0 0 0 1 0" result="invert"/><feFlood flood-color="#fff" result="bg"/><feBlend in="invert" in2="bg"/></filter><mask id="mask" x="0" y="-8556.08" width="1888.88" height="32766" maskUnits="userSpaceOnUse"><g class="cls-8"/></mask><filter id="luminosity-invert-noclip-2" x="790.62" y="-8432" width="3.02" height="32766" filterUnits="userSpaceOnUse" color-interpolation-filters="sRGB"><feColorMatrix values="-1 0 0 0 1 0 -1 0 0 1 0 0 -1 0 1 0 0 0 1 0" result="invert"/><feFlood flood-color="#fff" result="bg"/><feBlend in="invert" in2="bg"/></filter><mask id="mask-2" x="804.77" y="-8556.08" width="3.02" height="32766" maskUnits="userSpaceOnUse"><g class="cls-7"/></mask></defs><g id="Mountain"><path class="cls-1" d="M791.76,224.28l-1.14-.09C792.6,224.54,795.65,224.67,791.76,224.28Z" transform="translate(14.16 -124.08)"/><path class="cls-1" d="M1864.68,448.86l-64.9-98.42a5.58,5.58,0,0,0-9-.39l-19.11,24.21a5.58,5.58,0,0,1-8.56.23l-70.61-80.12a5.58,5.58,0,0,0-8-.33l-35.64,34.31a5.59,5.59,0,0,1-7,.57l-27.63-19a5.45,5.45,0,0,1-1.1-1l-5.31-6.27a5.57,5.57,0,0,0-9.13.89l-6.61,11.9a5.57,5.57,0,0,1-9.53.36l-38.12-58a5.57,5.57,0,0,0-9.41.15l-28.77,46.94a5.57,5.57,0,0,1-9.44.1l-8.81-13.7a5.58,5.58,0,0,0-9.19-.27l-20.49,28a5.58,5.58,0,0,1-9.14-.2l-7-10.48a5.58,5.58,0,0,0-9.25-.05l-6.42,9.42a5.58,5.58,0,0,1-8.68.68L1348,244.06a5.83,5.83,0,0,0-1.19-1l-39.68-24a5.57,5.57,0,0,0-5.42-.2l-40.57,20.71a5.57,5.57,0,0,1-6.54-1.08l-22.44-23.19a5.57,5.57,0,0,0-8.57.67l-19.77,28.14a5.58,5.58,0,0,1-6.24,2.11l-51.38-16.22a5.63,5.63,0,0,1-2.81-2l-53.26-72.22a5.57,5.57,0,0,0-9.09.16l-32,46.9a5.57,5.57,0,0,1-9.15.08l-7.72-10.9a5.58,5.58,0,0,0-9.17.09l-10.78,15.9a5.58,5.58,0,0,1-8.46.91l-86.58-82.52a5.57,5.57,0,0,0-8,.28L861.58,179a5.59,5.59,0,0,1-8.21,0L834.69,159a5.58,5.58,0,0,0-8.26.11l-37,41.89a5.58,5.58,0,0,1-8.17.2l-73.13-74.94a5.58,5.58,0,0,0-7.64-.32L610.2,204.29a5.59,5.59,0,0,1-7.36,0L564.5,170.06a5.58,5.58,0,0,0-7.72.29l-21.34,22.07a5.58,5.58,0,0,1-8,.07l-12-12a5.57,5.57,0,0,0-7.95.08L406.47,285.42a5.58,5.58,0,0,1-6.72,1l-64.09-35.61a5.58,5.58,0,0,0-7.1,1.44l-47.32,60.47a5.57,5.57,0,0,1-8.19.64L252.8,294.51a5.57,5.57,0,0,0-8.07.5l-32.36,38.68a5.58,5.58,0,0,1-9-.57h0a5.57,5.57,0,0,0-9.49.19l-2.25,3.81a5.57,5.57,0,0,1-9.11.71l-10.88-13.25a5.57,5.57,0,0,0-8.5-.13L108.35,387.1a5.57,5.57,0,0,1-8.06.34L80.4,368.26a5.58,5.58,0,0,0-7.77,0L-8.74,447.94a5.58,5.58,0,0,0,3.9,9.56H13.79l1.05-.5A439.07,439.07,0,0,1,116,423.15c2.49-.51,5-1,7.45-1.46-.15-35.1,39.84-52.3,71.26-57.28,32.22-5.1,66.25-5.41,98.31,1.79a28.72,28.72,0,0,1,7.39-13.65c5.45-5.45,11.71-7.08,19.09-7.91,3.06-.35,6.11-.75,9.16-1.12l.73-.11,4.53-.65c6.7-1,13.4-2.08,20.08-3.17,12.9-2.1,25.8-4.27,38.74-6.08q5.15-.72,10.3-1.4c.63-.32,1.28-.63,1.9-1,2.7-1.45,5.34-3,8-4.59,5.68-3.47,11.21-7.17,16.92-10.56a116.48,116.48,0,0,1,22.64-10.6,29.83,29.83,0,0,1,2.76-8c4-7.77,9.63-15.28,17.22-19.72-.27-7.48,2.26-15,7.83-19.83,11-9.44,22.6-17.66,35.45-23.77,4.58-2.83,9.12-5.73,13.56-8.85,7-4.9,15.49-4.83,22.92-1.78a257.31,257.31,0,0,1,34.25-1.9c15.14,0,26.35,12.39,27,27s-12.87,27-27,27c-8,0-16.08.16-24.09.91-.82.07-2.27.3-3.29.47-1.83.31-1.23.2,0,0l3.64-.65c-1.76.31-3.53.53-5.28.86q-4.83.88-9.56,2.23c-2.15.62-4.22,1.4-6.31,2.16,1.59-.55,2.5-.76-1,.38l-5.1,3c-3.43,2-6.84,4.1-10.19,6.27-1.34.88-2.65,1.79-4,2.7-1,.76-2.1,1.48-2.89,2.16l-.91.73c2.06,6.12,2.84,12.67,3.36,19.07,1.32,16.34-3.72,31.84-8,47.38-.34,1.21-.66,2.43-1,3.65,2.72,0,5.44,0,8.17.05,84.29,1,167.6,17.29,251.93,17.45,87.52.16,175,.85,262.49,3.8q15.9.53,31.78,1.26a28.16,28.16,0,0,1,25.7-18.32c2,0,4-.06,6.07-.12,17.34-.5,34.66-1,52-.8,8.25.11,16.67.26,25.1.73l12.76-.08q41.65-.36,83.3-1.54c16.61-.44,33.29,2.16,49.88,2.89a250.51,250.51,0,0,0,28.08-.36l1.05-.18c1.8-.34,3.58-.74,5.35-1.24l.66-.21c.52-.29,1.3-.69,2-1A159.1,159.1,0,0,1,1345,347.4c-6.16-12.17-4-26.34,7-34.83,10-7.75,26.53-7.95,35.45,2.11,7.78,8.79,15.28,18.57,20.14,29.45.41.39.81.79,1.23,1.17l.4.34c2.3,1.1,4.82,2.57,7.09,3.95a11,11,0,0,0,1.16.44q2.65.83,5.37,1.42c1.67.38,3.34.7,5,1h.17c9.13.8,18.26,1.26,27.41,1.66.85,0,1.68.11,2.49.21,32.21-8,64.64-15,97.85-17.25,10.68-.73,19.45,6.18,23.88,15.16,18.86-2.21,37.49-2.41,56.79-1.78,10.16.33,20.35.66,30.52.45,6.58-14.53,23.64-23.25,38.76-13.93,14.09,8.68,26.35,22.54,21.7,40.4a30.16,30.16,0,0,1-9.87,15.42c.32,1,.67,2,1,3-.71-2.24,2,4.25,2.58,5.3,1.15,2.05,2.41,4,3.73,5.95-1.26-1.9,2.37,2.79,3.19,3.64,1.35,1.41,2.78,2.72,4.24,4-1.7-1.61,3.68,2.56,4.75,3.18s2,1.12,3.1,1.64l.21.09c.93.31,1.86.59,2.8.86.67,0,1.33.08,1.92.08,3.42-.88,6.92-1.5,10.35-2.42,17.07-4.59,35.91-11.82,53.74-7.07,22.9,6.1,29.78,26.06,28.47,46.43H1860A5.57,5.57,0,0,0,1864.68,448.86ZM1109.94,269.42a26.93,26.93,0,0,1-14.23,4.26,26,26,0,0,1-16.78-6,25,25,0,0,1-4,.35,26,26,0,0,1-14.36-4.25l-.19.35c-3.79,6.46-9.38,9.79-16.14,12.4a75,75,0,0,1-12,3.54,26.28,26.28,0,0,1-12.26,3.11,57.28,57.28,0,0,1-16.9-2.6c-.55-.08-1.09-.16-1.63-.26l.09-.22c-2.17-.72-4.34-1.55-6.54-2.5-7.08-3.06-11.22-10-12.57-17.53a30.49,30.49,0,0,1-9.4,10c-5.74,3.69-14.35,4.5-20.81,2.72-7.28-2-11.8-6.56-16.13-12.41-3-4-5.76-8.14-8.47-12.32a112.71,112.71,0,0,1-7.9,9.36c-10.11,10.66-24.38,18.24-39.39,14.2a32.77,32.77,0,0,1-11.58-5.86,47,47,0,0,1-16,1.71,43.31,43.31,0,0,1-14.18-3.5q-2.52,2-5.31,3.83c-20.16,13.19-47.73,13.33-69.68,4.85a128,128,0,0,1-32.09-17.94,56,56,0,0,1-17.87,13.46c-8.14,3.72-15.59,4.93-24,1.36a27.6,27.6,0,0,1-10.47-7.62,69.11,69.11,0,0,1-23.07,9c-14.89,2.89-28.42-4.05-33.21-18.85-4.25-13.13,5-30.52,18.85-33.22,1.95-.37,3.88-.82,5.79-1.37-.13,0,.54-.35,2.78-1,.51-.26,1.55-.76,2.54-1.3l.26-.25c.75-.69,1.52-1.36,2.24-2.07.89-.88,1.74-1.78,2.56-2.71l.32-.38.17-.24c.63-.91,1.24-1.85,1.83-2.79a117.37,117.37,0,0,0,7-13.31c7.84-17,35.68-17.48,45.38-2.22,12.35-8.88,29.78-6.24,39.11,7.9.57.85,1.17,1.69,1.76,2.53q2.44,2.9,5.15,5.57t5.77,5.24c.74.54,1.49,1.07,2.25,1.58a93.21,93.21,0,0,0,10.05,5.78c.41.17,4.17,1.91,5.88,2.46a71.57,71.57,0,0,0,7.78,2l.1,0,1.3.12.2,0a53.61,53.61,0,0,0,6.08,0c.57-.12,1.15-.23,1.71-.37.9-.23,1.79-.51,2.67-.79,1.28-.77,2.56-1.53,3.84-2.31.76-.71,1.51-1.45,2.22-2.22,1.65-2.78,2.11-3.29,1.94-2.87.64-1,1.24-2.13,1.81-3.22.95-1.86,3.36-7.94-.05.49,2.62-6.48,5.89-12.69,12.41-16.14a32,32,0,0,1,13.63-3.68c5.91-.27,11.8,2.28,16.36,5.79a29.22,29.22,0,0,1,8.31,9.77c1.13-.77,2.25-1.57,3.35-2.41,6.84-5.24,17.87-4.56,25.46-.94q1.8-2.79,3.56-5.62c2.9-4.66,5.6-9.46,8.63-14.05,4.77-7.22,11.11-11.73,19.72-12.89,7.88-1.06,17.27,1,22.69,7.43,13.87,16.46,23.63,35.57,36.4,52.79a20,20,0,0,1,3.29,6.87c6.29-10.15,17.84-13.8,29.8-11.7-8-1.4-.37-.18,1.7-.24.47,0,.94-.06,1.41-.09,3.2-.86,10.49-3.28,10.94-3.46,7.49-2.9,15.24-1,21.47,3.35A28.85,28.85,0,0,1,1065,216a27.43,27.43,0,0,1,9.71-3.57,26.93,26.93,0,0,1,11.89-6.93l2.46-.33.82-.26a20.56,20.56,0,0,1,10.77-.48,9.66,9.66,0,0,1,3.6.49,20.27,20.27,0,0,1,9.18,4.83,8.84,8.84,0,0,1,2.74,2.12q2.11,2.73,4.22,5.47c.74,1.7,1.46,3.42,2.18,5.14a29,29,0,0,1,9.57,20.42C1132.75,255.82,1122.18,267,1109.94,269.42Z" transform="translate(14.16 -124.08)"/><g class="cls-2"><path class="cls-3" d="M1874.73,470.5,1799.88,357l-28,35.5L1693,303l-43.13,41.5-32-22-11-13-15,27-48-73-38,62-18-28-30,41-16-24-15,22-75-80-43-26-47,24-30-31-26,37-57-18-59-80-41,60-17-24-19,28-95.46-91-55.54,61-27-29-45,51-81-83-98,85-46-41-29,30-20-20-108,112-72-40-54,69-29-27-41,49-9-14L192,357l-20.12-24.5-63,72-28-27-95,93h9.92a23.57,23.57,0,0,1,9-8.58q5-2.58,10-4.92A439.07,439.07,0,0,1,116,423.15c2.49-.51,5-1,7.45-1.46-.15-35.1,39.84-52.3,71.26-57.28,32.22-5.1,66.25-5.41,98.31,1.79a28.72,28.72,0,0,1,7.39-13.65c5.45-5.45,11.71-7.08,19.09-7.91,3.06-.35,6.11-.75,9.16-1.12l.73-.11,4.53-.65c6.7-1,13.4-2.08,20.08-3.17,12.9-2.1,25.8-4.27,38.74-6.08q5.15-.72,10.3-1.4c.63-.32,1.28-.63,1.9-1,2.7-1.45,5.34-3,8-4.59,5.68-3.47,11.21-7.17,16.92-10.56a116.48,116.48,0,0,1,22.64-10.6,29.83,29.83,0,0,1,2.76-8c4-7.77,9.63-15.28,17.22-19.72-.27-7.48,2.26-15,7.83-19.83,11-9.44,22.6-17.66,35.45-23.77,4.58-2.83,9.12-5.73,13.56-8.85,7-4.9,15.49-4.83,22.92-1.78a257.31,257.31,0,0,1,34.25-1.9c15.14,0,26.35,12.39,27,27s-12.87,27-27,27c-8,0-16.08.16-24.09.91-.82.07-2.27.3-3.29.47-1.83.31-1.23.2,0,0l3.64-.65c-1.76.31-3.53.53-5.28.86q-4.83.88-9.56,2.23c-2.15.62-4.22,1.4-6.31,2.16,1.59-.55,2.5-.76-1,.38l-5.1,3c-3.43,2-6.84,4.1-10.19,6.27-1.34.88-2.65,1.79-4,2.7-1,.76-2.1,1.48-2.89,2.16l-.91.73c2.06,6.12,2.84,12.67,3.36,19.07,1.32,16.34-3.72,31.84-8,47.38-.34,1.21-.66,2.43-1,3.65,2.72,0,5.44,0,8.17.05,84.29,1,167.6,17.29,251.93,17.45,87.52.16,175,.85,262.49,3.8q15.9.53,31.78,1.26a28.16,28.16,0,0,1,25.7-18.32c2,0,4-.06,6.07-.12,17.34-.5,34.66-1,52-.8,8.25.11,16.67.26,25.1.73l12.76-.08q41.65-.36,83.3-1.54c16.61-.44,33.29,2.16,49.88,2.89a250.51,250.51,0,0,0,28.08-.36l1.05-.18c1.8-.34,3.58-.74,5.35-1.24l.66-.21c.52-.29,1.3-.69,2-1A159.1,159.1,0,0,1,1345,347.4c-6.16-12.17-4-26.34,7-34.83,10-7.75,26.53-7.95,35.45,2.11,7.78,8.79,15.28,18.57,20.14,29.45.41.39.81.79,1.23,1.17l.4.34c2.3,1.1,4.82,2.57,7.09,3.95a11,11,0,0,0,1.16.44q2.65.83,5.37,1.42c1.67.38,3.34.7,5,1h.17c9.13.8,18.26,1.26,27.41,1.66.85,0,1.68.11,2.49.21,32.21-8,64.64-15,97.85-17.25,10.68-.73,19.45,6.18,23.88,15.16,18.86-2.21,37.49-2.41,56.79-1.78,10.16.33,20.35.66,30.52.45,6.58-14.53,23.64-23.25,38.76-13.93,14.09,8.68,26.35,22.54,21.7,40.4a30.16,30.16,0,0,1-9.87,15.42c.32,1,.67,2,1,3-.71-2.24,2,4.25,2.58,5.3,1.15,2.05,2.41,4,3.73,5.95-1.26-1.9,2.37,2.79,3.19,3.64,1.35,1.41,2.78,2.72,4.24,4-1.7-1.61,3.68,2.56,4.75,3.18s2,1.12,3.1,1.64l.21.09c.93.31,1.86.59,2.8.86.67,0,1.33.08,1.92.08,3.42-.88,6.92-1.5,10.35-2.42,17.07-4.59,35.91-11.82,53.74-7.07,27.8,7.4,32,35.24,26.57,59.43ZM1109.94,269.42a26.93,26.93,0,0,1-14.23,4.26,26,26,0,0,1-16.78-6,25,25,0,0,1-4,.35,26,26,0,0,1-14.36-4.25l-.19.35c-3.79,6.46-9.38,9.79-16.14,12.4a75,75,0,0,1-12,3.54,26.28,26.28,0,0,1-12.26,3.11,57.28,57.28,0,0,1-16.9-2.6c-.55-.08-1.09-.16-1.63-.26l.09-.22c-2.17-.72-4.34-1.55-6.54-2.5-7.08-3.06-11.22-10-12.57-17.53a30.49,30.49,0,0,1-9.4,10c-5.74,3.69-14.35,4.5-20.81,2.72-7.28-2-11.8-6.56-16.13-12.41-3-4-5.76-8.14-8.47-12.32a112.71,112.71,0,0,1-7.9,9.36c-10.11,10.66-24.38,18.24-39.39,14.2a32.77,32.77,0,0,1-11.58-5.86,47,47,0,0,1-16,1.71,43.31,43.31,0,0,1-14.18-3.5q-2.52,2-5.31,3.83c-20.16,13.19-47.73,13.33-69.68,4.85a128,128,0,0,1-32.09-17.94,56,56,0,0,1-17.87,13.46c-8.14,3.72-15.59,4.93-24,1.36a27.6,27.6,0,0,1-10.47-7.62,69.11,69.11,0,0,1-23.07,9c-14.89,2.89-28.42-4.05-33.21-18.85-4.25-13.13,5-30.52,18.85-33.22,1.95-.37,3.88-.82,5.79-1.37-.13,0,.54-.35,2.78-1,.51-.26,1.55-.76,2.54-1.3l.26-.25c.75-.69,1.52-1.36,2.24-2.07.89-.88,1.74-1.78,2.56-2.71l.32-.38.17-.24c.63-.91,1.24-1.85,1.83-2.79a117.37,117.37,0,0,0,7-13.31c7.84-17,35.68-17.48,45.38-2.22,12.35-8.88,29.78-6.24,39.11,7.9.57.85,1.17,1.69,1.76,2.53q2.44,2.9,5.15,5.57t5.77,5.24c.74.54,1.49,1.07,2.25,1.58a93.21,93.21,0,0,0,10.05,5.78c.41.17,4.17,1.91,5.88,2.46a71.57,71.57,0,0,0,7.78,2l.1,0,1.3.12.2,0a53.61,53.61,0,0,0,6.08,0c.57-.12,1.15-.23,1.71-.37.9-.23,1.79-.51,2.67-.79,1.28-.77,2.56-1.53,3.84-2.31.76-.71,1.51-1.45,2.22-2.22,1.65-2.78,2.11-3.29,1.94-2.87.64-1,1.24-2.13,1.81-3.22.95-1.86,3.36-7.94-.05.49,2.62-6.48,5.89-12.69,12.41-16.14a32,32,0,0,1,13.63-3.68c5.91-.27,11.8,2.28,16.36,5.79a29.22,29.22,0,0,1,8.31,9.77c1.13-.77,2.25-1.57,3.35-2.41,6.84-5.24,17.87-4.56,25.46-.94q1.8-2.79,3.56-5.62c2.9-4.66,5.6-9.46,8.63-14.05,4.77-7.22,11.11-11.73,19.72-12.89,7.88-1.06,17.27,1,22.69,7.43,13.87,16.46,23.63,35.57,36.4,52.79a20,20,0,0,1,3.29,6.87c6.29-10.15,17.84-13.8,29.8-11.7-8-1.4-.37-.18,1.7-.24.47,0,.94-.06,1.41-.09,3.2-.86,10.49-3.28,10.94-3.46,7.49-2.9,15.24-1,21.47,3.35A28.85,28.85,0,0,1,1065,216a27.43,27.43,0,0,1,9.71-3.57,26.93,26.93,0,0,1,11.89-6.93l2.46-.33.82-.26a20.56,20.56,0,0,1,10.77-.48,9.66,9.66,0,0,1,3.6.49,20.27,20.27,0,0,1,9.18,4.83,8.84,8.84,0,0,1,2.74,2.12q2.11,2.73,4.22,5.47c.74,1.7,1.46,3.42,2.18,5.14a29,29,0,0,1,9.57,20.42C1132.75,255.82,1122.18,267,1109.94,269.42Z" transform="translate(14.16 -124.08)"/></g><g class="cls-4"><path class="cls-3" d="M791.76,224.28l-1.14-.09C792.6,224.54,795.65,224.67,791.76,224.28Z" transform="translate(14.16 -124.08)"/></g></g><g id="Text"><text class="cls-5" transform="translate(553.16 234.95)">G<tspan class="cls-6" x="80.43" y="0">r</tspan><tspan x="123.9" y="0">atitude Team</tspan></text></g></svg>