<svg xmlns="http://www.w3.org/2000/svg" viewBox="0 0 825 112"><g id="Text"><path d="M91.18,8.89a2.28,2.28,0,0,1,1.95.68,3.89,3.89,0,0,1,.47,2.15A31.32,31.32,0,0,0,85.83,25a65.6,65.6,0,0,0-2.52,18.42c0,.21-.18.42-.53.63a4.48,4.48,0,0,1-1.1.48,3,3,0,0,1-1.1.1.52.52,0,0,1-.53-.58q0-.42.06-1.05c0-.42,0-.87,0-1.36a12.92,12.92,0,0,0-1.68-5.78,25.81,25.81,0,0,0-4.62-6.24,26.74,26.74,0,0,0-6.88-5,18,18,0,0,0-8.45-2.05,21.42,21.42,0,0,0-11,2.78,25.35,25.35,0,0,0-8,7.4,35,35,0,0,0-5,10.77A46.93,46.93,0,0,0,32.8,56.35a48.42,48.42,0,0,0,2.05,14.23,38.62,38.62,0,0,0,5.72,11.65,28.09,28.09,0,0,0,8.88,7.93A22.72,22.72,0,0,0,60.84,93.1a19.19,19.19,0,0,0,7.56-1.42,16.35,16.35,0,0,0,5.67-3.88A17.38,17.38,0,0,0,77.64,82a20.5,20.5,0,0,0,1.26-7.25,22.38,22.38,0,0,0-1-6.35,21.7,21.7,0,0,0-2.62-5.77,15.91,15.91,0,0,0-3.89-4.2,7.93,7.93,0,0,0-4.83-1.63,13.55,13.55,0,0,0-3.15.37,9.25,9.25,0,0,0-2.83,1.15,6.3,6.3,0,0,0-2,1.94,5.19,5.19,0,0,0-.73,2.84,6.55,6.55,0,0,0,.42,2.36,7.11,7.11,0,0,0,2.31,3.15,1.31,1.31,0,0,0,1,.37.68.68,0,0,1,.79.47c.17.39.19.65.05.79-.35.42-1.54.93-3.57,1.52a25.8,25.8,0,0,1-7.25.89,7.54,7.54,0,0,1-5.93-2.41,8.15,8.15,0,0,1-2.15-5.57,5.91,5.91,0,0,1,2-4,18.56,18.56,0,0,1,5.46-3.67,39.54,39.54,0,0,1,8.09-2.68,44.46,44.46,0,0,1,9.87-1,36.75,36.75,0,0,1,10.08,1.26,23.68,23.68,0,0,1,7.45,3.46,15.28,15.28,0,0,1,4.62,5.15,13,13,0,0,1,1.58,6.19,19.58,19.58,0,0,1-2.94,10,33.38,33.38,0,0,1-7.77,8.93A41.46,41.46,0,0,1,71,94.62a34.79,34.79,0,0,1-12.86,2.47,53.3,53.3,0,0,1-17.8-2.73,35.31,35.31,0,0,1-12.86-7.67A32.15,32.15,0,0,1,19.68,75a40.39,40.39,0,0,1-2.63-14.81,38.32,38.32,0,0,1,3.57-16.38,43.08,43.08,0,0,1,9.77-13.44A45.78,45.78,0,0,1,45,21.33,49.27,49.27,0,0,1,63.15,18a44.57,44.57,0,0,1,12.49,1.47q4.94,1.47,8,2.42l1.21-3c.53-1.3,1.12-2.61,1.79-3.94a34.31,34.31,0,0,1,2.15-3.73A6.69,6.69,0,0,1,91.18,8.89Z"/><path d="M147,50.36q-1.15.95-2.73,2.37T141,55.46a26.67,26.67,0,0,1-3.52,2.25,7.42,7.42,0,0,1-3.47.95A5.09,5.09,0,0,1,131.4,58a20.27,20.27,0,0,1-2.15-1.47q-1-.8-2-1.47a3.31,3.31,0,0,0-2-.69,6,6,0,0,0-4.78,2.31,17.81,17.81,0,0,0-3.15,5.88,42.15,42.15,0,0,0-1.78,7.77A58.68,58.68,0,0,0,115,78.4a44.27,44.27,0,0,0,.26,5.3,12.13,12.13,0,0,0,.79,3.26,3,3,0,0,0,1.42,1.62,5,5,0,0,0,2.15.42,11.45,11.45,0,0,0,2.94-.42c.21-.07.37.07.47.42a2.94,2.94,0,0,1,.16.84c0,.14-.11.3-.32.48a1,1,0,0,1-.42.26q-2.31.94-4.72,2l-4,1.83c-1,.42-2.15.88-3.52,1.37a10.67,10.67,0,0,1-3.52.73,6.48,6.48,0,0,1-2.78-.52c-.73-.35-1.1-.7-1.1-1.05a1.81,1.81,0,0,1,.26-.95,5.09,5.09,0,0,0,.47-1.57c.14-1,.3-2.29.48-3.73s.35-3,.52-4.67.32-3.41.42-5.2.16-3.55.16-5.3q0-5.88-.37-10A26.05,26.05,0,0,0,103.47,57a6.44,6.44,0,0,0-6.72-4.73h-1a3.46,3.46,0,0,0-.84.11.56.56,0,0,1-.63-.63,1,1,0,0,1,.63-.95c.77-.49,2-1.2,3.57-2.15s3.27-1.85,5-2.73,3.38-1.66,5-2.36a10.28,10.28,0,0,1,3.57-1,3.26,3.26,0,0,1,2.31.89,5.63,5.63,0,0,1,1.42,2.26,15.29,15.29,0,0,1,.68,3.1,28.24,28.24,0,0,1,.21,3.41c0,.84,0,1.71,0,2.62s-.06,1.89-.06,2.94A79.23,79.23,0,0,1,125.1,47q3.78-3.83,7.14-3.83a3.77,3.77,0,0,1,2.47,1.05c.8.7,1.66,1.49,2.57,2.36a24.75,24.75,0,0,0,2.83,2.36,5.19,5.19,0,0,0,3,1,4.7,4.7,0,0,0,2-.31l1-.53c.56,0,.84.39.84,1.16Z"/><path d="M173.29,62.33a48.28,48.28,0,0,0-1.47-5.82,15.46,15.46,0,0,0-2.1-4.31,8.34,8.34,0,0,0-3-2.62,9.73,9.73,0,0,0-4.41-.9,10.57,10.57,0,0,0-4.25.84,14,14,0,0,0-3.36,2,11.23,11.23,0,0,0-2.21,2.31,5.22,5.22,0,0,0-.89,1.78.85.85,0,0,1-.95.84,4.18,4.18,0,0,1-2.73-1.05,3.18,3.18,0,0,1-1.26-2.52,2.92,2.92,0,0,1,.21-1.26c1.61-.9,3.57-1.89,5.88-2.94s4.71-2,7.2-2.94a67.09,67.09,0,0,1,7.4-2.25,28.06,28.06,0,0,1,6.61-.9,14.72,14.72,0,0,1,6.78,1.26,8.12,8.12,0,0,1,3.51,3.57,14.74,14.74,0,0,1,1.42,5.41c.18,2.07.33,4.29.47,6.67q.32,5.36.84,10.34a55.42,55.42,0,0,0,1.58,8.82,20.37,20.37,0,0,0,2.68,6.2,4.79,4.79,0,0,0,4,2.36,8.62,8.62,0,0,0,2.52-.42,20.55,20.55,0,0,0,2.62-1c.84-.38,1.6-.77,2.26-1.15s1.1-.65,1.31-.79a1.08,1.08,0,0,1,1.16.94,2.11,2.11,0,0,1-.21,1,13.85,13.85,0,0,1-1.58,1c-.91.56-2,1.22-3.36,2s-2.8,1.6-4.41,2.47-3.2,1.7-4.77,2.47-3,1.4-4.36,1.89a9.77,9.77,0,0,1-3.15.73,3.05,3.05,0,0,1-2.36-1.1,9.52,9.52,0,0,1-1.74-2.94,26.69,26.69,0,0,1-1.26-4.25c-.35-1.61-.66-3.29-.94-5q-1.89,1.58-4.83,3.73a58,58,0,0,1-6.41,4,50.81,50.81,0,0,1-7.08,3.2,20.4,20.4,0,0,1-7,1.31,12.44,12.44,0,0,1-4.93-.89,10.52,10.52,0,0,1-3.52-2.36,9.47,9.47,0,0,1-2.1-3.41,12,12,0,0,1-.68-4,7.66,7.66,0,0,1,2-5.51,25.55,25.55,0,0,1,6.35-4.46q2-1.05,5.56-2.78c2.38-1.16,4.82-2.33,7.3-3.52s4.79-2.33,6.93-3.41S172.31,63,173.29,62.33Zm3.05,16.28c-.21-1.19-.42-2.49-.63-3.89s-.42-2.73-.63-4-.41-2.34-.58-3.25-.3-1.51-.37-1.79q-1.68.63-3.78,1.47c-1.4.56-2.8,1.18-4.2,1.84s-2.73,1.33-4,2A35.3,35.3,0,0,0,159,72.83,15.52,15.52,0,0,0,155.34,76a5.86,5.86,0,0,0-1.26,3.78,8.52,8.52,0,0,0,1.78,5.36q1.78,2.31,5.57,2.31a12.86,12.86,0,0,0,4.15-.74,30.26,30.26,0,0,0,4-1.68,29.15,29.15,0,0,0,3.2-1.89,15,15,0,0,0,1.89-1.47c.56-.56,1-1,1.31-1.41A2.14,2.14,0,0,0,176.34,78.61Z"/><path d="M249.1,80.39c.14-.14.26-.12.37.06a2,2,0,0,1,.21.73,3.41,3.41,0,0,1-.05,1,1.6,1.6,0,0,1-.42.84,45.77,45.77,0,0,1-5.25,4.2q-3.15,2.2-6.51,4.09c-.63.35-1.51.81-2.63,1.37s-2.36,1.1-3.73,1.63a41.19,41.19,0,0,1-4.2,1.36,15.39,15.39,0,0,1-4,.58,17.62,17.62,0,0,1-7.14-1.47,18.21,18.21,0,0,1-9.82-10.19,20.93,20.93,0,0,1-1.41-7.77,28.05,28.05,0,0,1,1.26-8.5,45.73,45.73,0,0,1,2.88-7.14,51.38,51.38,0,0,1,3.1-5.3,32.07,32.07,0,0,0,2-3.21q-2-.11-3.63-.15T207,52.46q-3.36,0-5.67.06a19.68,19.68,0,0,0-4.1.47,3.82,3.82,0,0,0-1.57.84,9.63,9.63,0,0,1-1.26.94l-.58-.57a1.14,1.14,0,0,1-.37-.79.44.44,0,0,1,.11-.32,8.07,8.07,0,0,1,1.36-1.2c.91-.74,2.05-1.61,3.41-2.63l4.52-3.36c1.64-1.22,3.22-2.36,4.72-3.41s2.8-1.94,3.89-2.68a15.76,15.76,0,0,1,2.15-1.31,1.39,1.39,0,0,1,1.26.21q.63.42.42.63a8.6,8.6,0,0,0-.94.79c-.42.38-.56.72-.42,1a10.88,10.88,0,0,0,4,1.68,52.7,52.7,0,0,0,6.4,1.21c2.38.32,4.83.56,7.35.74s4.8.26,6.83.26q4.51,0,7.24-.26a35.62,35.62,0,0,0,4.52-.69,21.1,21.1,0,0,0,2.2-.63c.07,0,.21.11.42.32a1,1,0,0,1,.32.73q0,.21-1.53,1.05c-1,.57-2,1.16-3.09,1.79-.63.35-1.39.8-2.26,1.36s-1.82,1.11-2.84,1.63a28.17,28.17,0,0,1-3.2,1.42,11.39,11.39,0,0,1-3.25.73c-1.05.14-2.28.25-3.68.32s-2.87.12-4.41.16l-4.67.1c-1.58,0-3,.05-4.36.05-.21.35-.54.93-1,1.74a18,18,0,0,0-1.31,3.09,41.92,41.92,0,0,0-1.15,4.31,24.7,24.7,0,0,0-.53,5.25,23.27,23.27,0,0,0,1.31,7.93,18.81,18.81,0,0,0,3.68,6.24,16.79,16.79,0,0,0,12.65,5.57,17,17,0,0,0,4.25-.53,23.2,23.2,0,0,0,3.89-1.36,28.21,28.21,0,0,0,3.41-1.84,27.09,27.09,0,0,0,2.73-1.94Z"/><path d="M265.27,76.72c0,1.47,0,2.89.11,4.25a10.25,10.25,0,0,0,.73,3.52A5.44,5.44,0,0,0,268,86.85a6.08,6.08,0,0,0,3.57.89,14.66,14.66,0,0,0,2.63-.26A20.92,20.92,0,0,0,277,86.8q1.31-.42,2.31-.84a4.93,4.93,0,0,0,1.21-.63q.31-.31.42,0a2,2,0,0,1,.05.79,3.31,3.31,0,0,1-.26.94,1.51,1.51,0,0,1-.53.68l-3.67,1.89q-2.62,1.37-6.2,2.84a65.17,65.17,0,0,1-6.56,2.47,18.73,18.73,0,0,1-5.3,1,4.9,4.9,0,0,1-3.78-1.47,5.18,5.18,0,0,1-1.37-3.67c0-.49,0-.91,0-1.26s.09-.81.16-1.37.19-2,.37-3.83.35-3.94.52-6.25.34-4.63.48-7,.21-4.36.21-6V61.39a32.83,32.83,0,0,0-.32-4.83,8.49,8.49,0,0,0-1.05-3.26,4.3,4.3,0,0,0-1.31-1.2,3.67,3.67,0,0,0-1.94-.48,3.18,3.18,0,0,0-1.26.27,2.9,2.9,0,0,1-1,.26c-.14,0-.37-.21-.68-.63s-.3-.74,0-1a27.46,27.46,0,0,1,3.05-1.68l5-2.52c2-1,3.85-1.83,5.67-2.57a12.46,12.46,0,0,1,3.88-1.1,1.72,1.72,0,0,1,1.58.68,2.85,2.85,0,0,1,.42,1.52v.42a28.31,28.31,0,0,1-.32,3.36q-.31,2.31-.68,5.67c-.25,2.25-.47,4.83-.68,7.77s-.32,6.13-.32,9.56Zm-4.2-54.6a4.92,4.92,0,0,1,1.73,1.15,30.88,30.88,0,0,1,2.47,2.42,33.9,33.9,0,0,1,2.21,2.62,4.16,4.16,0,0,1,.94,1.68c0,.36-.42.88-1.26,1.58a34.51,34.51,0,0,1-2.89,2.15c-1.08.74-2.13,1.38-3.15,1.94a5.51,5.51,0,0,1-2.15.84,4.21,4.21,0,0,1-1.52-1c-.81-.67-1.63-1.42-2.47-2.26s-1.59-1.66-2.26-2.47a3.79,3.79,0,0,1-1-1.63c0-.35.45-.89,1.36-1.62s1.91-1.51,3-2.31a34.43,34.43,0,0,1,3.15-2.1A16.34,16.34,0,0,1,261.07,22.12Z"/><path d="M327,80.39c.14-.14.26-.12.37.06a2,2,0,0,1,.21.73,3.41,3.41,0,0,1,0,1,1.6,1.6,0,0,1-.42.84,45.77,45.77,0,0,1-5.25,4.2q-3.15,2.2-6.51,4.09c-.63.35-1.51.81-2.63,1.37s-2.36,1.1-3.73,1.63a41.19,41.19,0,0,1-4.2,1.36,15.39,15.39,0,0,1-4,.58,17.62,17.62,0,0,1-7.14-1.47,18.21,18.21,0,0,1-9.82-10.19,20.93,20.93,0,0,1-1.41-7.77,28.05,28.05,0,0,1,1.26-8.5,45.73,45.73,0,0,1,2.88-7.14,51.38,51.38,0,0,1,3.1-5.3,32.07,32.07,0,0,0,2-3.21q-2-.11-3.63-.15t-3.09-.06q-3.36,0-5.67.06a19.68,19.68,0,0,0-4.1.47,3.82,3.82,0,0,0-1.57.84,9.63,9.63,0,0,1-1.26.94l-.58-.57a1.1,1.1,0,0,1-.37-.79.44.44,0,0,1,.11-.32,8.07,8.07,0,0,1,1.36-1.2c.91-.74,2.05-1.61,3.41-2.63l4.52-3.36c1.64-1.22,3.22-2.36,4.72-3.41s2.8-1.94,3.89-2.68a15.76,15.76,0,0,1,2.15-1.31,1.39,1.39,0,0,1,1.26.21q.63.42.42.63a8.6,8.6,0,0,0-.94.79c-.42.38-.56.72-.42,1a10.88,10.88,0,0,0,4,1.68,52.7,52.7,0,0,0,6.4,1.21c2.38.32,4.83.56,7.35.74s4.8.26,6.83.26q4.51,0,7.24-.26a35.62,35.62,0,0,0,4.52-.69,21.1,21.1,0,0,0,2.2-.63c.07,0,.21.11.42.32a1,1,0,0,1,.32.73q0,.21-1.53,1.05c-1,.57-2,1.16-3.09,1.79-.63.35-1.39.8-2.26,1.36s-1.82,1.11-2.84,1.63a28.17,28.17,0,0,1-3.2,1.42,11.39,11.39,0,0,1-3.25.73c-1.05.14-2.28.25-3.68.32s-2.87.12-4.41.16l-4.67.1c-1.58,0-3,.05-4.36.05-.21.35-.54.93-1,1.74a18,18,0,0,0-1.31,3.09,41.92,41.92,0,0,0-1.15,4.31,24.7,24.7,0,0,0-.53,5.25,23.27,23.27,0,0,0,1.31,7.93,18.81,18.81,0,0,0,3.68,6.24,16.79,16.79,0,0,0,12.65,5.57,17,17,0,0,0,4.25-.53,23.2,23.2,0,0,0,3.89-1.36A28.21,28.21,0,0,0,323,83.49a27.09,27.09,0,0,0,2.73-1.94Z"/><path d="M325.54,51.62c-.56-.14-.82-.42-.79-.84s.3-.66.79-.73l2-.74c1.11-.42,2.46-.91,4-1.47s3.22-1.15,4.93-1.78,3.24-1.16,4.57-1.58l1.73-.57a2.5,2.5,0,0,1,.79-.16,1.5,1.5,0,0,1,.74.26.59.59,0,0,1,.21.79,22.6,22.6,0,0,0-.69,4q-.36,3.15-.68,7c-.21,2.56-.4,5.09-.58,7.61s-.26,4.52-.26,6q0,8.4,3.57,13T357,86.9a11.87,11.87,0,0,0,10.4-5.25q.94-1.37,1.26-6c0-.56,0-1.3.05-2.21s.07-1.87.1-2.88.07-2,.11-2.94.05-1.74.05-2.37a83.08,83.08,0,0,0-.26-9,26.46,26.46,0,0,0-1.1-6.15q-.31-1.26-1.26-1.26a11.67,11.67,0,0,0-1.21.06c-.39,0-.62-.27-.68-.9,0-.21.21-.43.63-.68a24.05,24.05,0,0,1,2.41-1.1c1.12-.42,2.36-.84,3.73-1.26s2.71-.77,4-1a35.36,35.36,0,0,1,3.57-.58,5.05,5.05,0,0,1,2.31.16.4.4,0,0,0,.16.26,1.5,1.5,0,0,1,.26.68,13.9,13.9,0,0,1-.26,3.94c-.32,2.21-.65,5.79-1,10.76q-.42,5.15-.73,10t-.32,7.35a14.39,14.39,0,0,0,1.84,7.82q1.83,2.9,4.57,2.89a8.21,8.21,0,0,0,3.41-.74,15.07,15.07,0,0,0,2.36-1.26c.56,0,.86.25.89.74s-.09.8-.36.94c-1.05.7-2.51,1.58-4.36,2.63s-3.78,2-5.78,3-3.9,1.75-5.72,2.42a13.71,13.71,0,0,1-4.41,1,1.86,1.86,0,0,1-1.52-1.1,9.73,9.73,0,0,1-1.1-2.68,24.26,24.26,0,0,1-.63-3.25,22.24,22.24,0,0,1-.21-2.94q-2.2,1.58-5,3.31c-1.89,1.15-3.85,2.24-5.88,3.25a41.54,41.54,0,0,1-6,2.47,18.41,18.41,0,0,1-5.51.94,15.82,15.82,0,0,1-10.5-3.41,11,11,0,0,1-4.1-8.87c0-.77.07-1.93.21-3.47s.32-3.29.53-5.25.38-4.06.52-6.3.21-4.41.21-6.51a14.75,14.75,0,0,0-1.52-7.4,5.38,5.38,0,0,0-3.94-2.89Z"/><path d="M431.59,86.59a29.37,29.37,0,0,1-3,2.52,39.59,39.59,0,0,1-11.07,5.72,20.86,20.86,0,0,1-6.67,1.1,16.62,16.62,0,0,1-6.93-1.57,19.54,19.54,0,0,1-6.25-4.57,23,23,0,0,1-4.46-7.19,25.26,25.26,0,0,1-1.68-9.45,31.49,31.49,0,0,1,2.36-12.39,25.23,25.23,0,0,1,6.93-9.45,32.1,32.1,0,0,1,11.13-6A49.48,49.48,0,0,1,427,43.22h2.84c.9,0,1.74,0,2.52.11V39.92q0-2.47-.06-5.1c0-1.75-.07-3.36-.1-4.83s-.05-2.38-.05-2.73a15.59,15.59,0,0,0-1.42-5.88c-.67-1.12-2-1.68-4-1.68-.28,0-.44-.31-.48-.94a1.6,1.6,0,0,1,.69-1.47,6.44,6.44,0,0,1,1.89-.79,14.27,14.27,0,0,1,3.15-.26c2.65,0,4.88,0,6.66,0s3.26-.11,4.41-.21a20.75,20.75,0,0,0,2.79-.42,12.86,12.86,0,0,0,1.78-.58.93.93,0,0,1,.89.26,2.1,2.1,0,0,1,.53,1,2.43,2.43,0,0,1,0,1.1.74.74,0,0,1-.63.63,8,8,0,0,0-1.73.47,2.83,2.83,0,0,0-1.1,1,10.9,10.9,0,0,0-.95,3.88q-.42,3.15-.84,7.77c-.28,3.08-.52,6.5-.73,10.24s-.39,7.51-.53,11.29-.26,7.45-.37,11-.15,6.69-.15,9.35c0,5.11.55,8.87,1.68,11.29s2.83,3.62,5.14,3.62a10.49,10.49,0,0,0,2.78-.42,20.13,20.13,0,0,0,2.84-1c.87-.38,1.68-.77,2.41-1.15a10.83,10.83,0,0,0,1.63-1c.35-.28.66-.11.95.52s.24,1-.11,1.26q-1.26.73-3.94,2.16t-5.93,3q-4,2-8.08,3.57a19.57,19.57,0,0,1-6.62,1.57,3.86,3.86,0,0,1-2.57-.63,2.57,2.57,0,0,1-.68-2V92.31c0-.66,0-1.36.05-2.1s0-1.43,0-2.1ZM430.23,83a8.19,8.19,0,0,0,1.26-2.68,25.2,25.2,0,0,0,.63-4.15c.13-1.47.21-3.27.21-5.4V65.17c0-1.61,0-3.32-.06-5.15s-.09-3.08-.15-3.78a6.64,6.64,0,0,0-1.47-3.36,11.64,11.64,0,0,0-3.26-2.73,18.2,18.2,0,0,0-4.67-1.83,22.48,22.48,0,0,0-5.62-.69,15.1,15.1,0,0,0-5.35.95,10.69,10.69,0,0,0-4.36,3A15,15,0,0,0,404.5,57a27.24,27.24,0,0,0-1.05,8.14,27.7,27.7,0,0,0,1.37,9,21.58,21.58,0,0,0,3.78,7,17,17,0,0,0,5.77,4.57,16.7,16.7,0,0,0,7.35,1.62,8.8,8.8,0,0,0,2.94-.47,12.48,12.48,0,0,0,2.47-1.15,15.46,15.46,0,0,0,1.94-1.42A5.91,5.91,0,0,0,430.23,83Z"/><path d="M502.46,82.7q-1.15,1.26-3.57,3.47a44.54,44.54,0,0,1-5.82,4.41,40,40,0,0,1-7.61,3.78,25.27,25.27,0,0,1-8.93,1.57,27.2,27.2,0,0,1-8.4-1.31,21.87,21.87,0,0,1-7.35-4,19.3,19.3,0,0,1-5.2-6.82,23.36,23.36,0,0,1-1.94-9.93,45.35,45.35,0,0,1,.63-8.13,30.64,30.64,0,0,1,1.68-6,22.17,22.17,0,0,1,2.36-4.41A34.68,34.68,0,0,1,461,52a22.75,22.75,0,0,1,4.1-3.57,39.92,39.92,0,0,1,5.19-3,30.12,30.12,0,0,1,5.88-2.15,25.08,25.08,0,0,1,6.25-.79q5.67,0,8.87,1.89a5.83,5.83,0,0,1,3.21,5.25,6.53,6.53,0,0,1-1.27,3.88,22.33,22.33,0,0,0,2.68-1c1.09-.49,2.19-1,3.31-1.52s2.12-1,3-1.42a12.9,12.9,0,0,0,1.74-.94.5.5,0,0,1,.47-.16.33.33,0,0,1,.26.37,4.42,4.42,0,0,1-.53,2.26,4.55,4.55,0,0,1-1.26,1.41c-1.12.7-2.72,1.58-4.83,2.63s-4.42,2.15-7,3.31-5.19,2.31-7.93,3.46-5.3,2.26-7.71,3.31-4.52,2-6.3,2.78-3,1.38-3.62,1.73a15.9,15.9,0,0,0,1.41,6.67,16.72,16.72,0,0,0,3.94,5.41,18.14,18.14,0,0,0,6,3.62,21.76,21.76,0,0,0,7.72,1.31,27.55,27.55,0,0,0,6.82-.78,28.76,28.76,0,0,0,8.45-3.57,8,8,0,0,1,1.32-.79,1.26,1.26,0,0,1,.83.37A1,1,0,0,1,502.46,82.7ZM465.51,66.64c1.19-.42,2.53-.93,4-1.52s3-1.25,4.41-2,2.74-1.36,3.93-2a19.57,19.57,0,0,0,2.74-1.68c1.25-.91,1.89-2.45,1.89-4.62a7.93,7.93,0,0,0-.48-2.63A7.41,7.41,0,0,0,478.32,48a6.83,6.83,0,0,0-3.05-.68,6.18,6.18,0,0,0-3.15,1A10,10,0,0,0,469,51.57a21.15,21.15,0,0,0-2.47,6A35.82,35.82,0,0,0,465.51,66.64Z"/><path d="M564.41,21.07q10.71,0,17-.53A66.24,66.24,0,0,0,591,19.18a11.27,11.27,0,0,0,4.57-1.89,5.87,5.87,0,0,0,1.57-2.1c.14-.35.49-.53,1.05-.53s1,.18,1,.53a6.15,6.15,0,0,0-.68,1.57c-.31.91-.7,2-1.15,3.31s-.93,2.7-1.42,4.2-.95,2.94-1.37,4.31-.77,2.57-1,3.62a10.42,10.42,0,0,0-.42,2.1,3.89,3.89,0,0,0-.52.05,3.35,3.35,0,0,1-.63,0c-.63,0-.95-.21-.95-.63a9.21,9.21,0,0,1,.11-1.26,9,9,0,0,0,.1-1.26,1.79,1.79,0,0,0-.1-.73c-.35-.7-1.52-1.23-3.52-1.58a58.46,58.46,0,0,0-6.93-.73q-3.93-.21-8-.26T566,27.89a15.88,15.88,0,0,0-7.93,2.26,23.09,23.09,0,0,0-7,6.46A35,35,0,0,0,546,47a45.92,45.92,0,0,0-2,13.91,49.1,49.1,0,0,0,1.53,12.6,33.76,33.76,0,0,0,4.35,10.08,21.13,21.13,0,0,0,6.93,6.72,17.85,17.85,0,0,0,9.24,2.42A19,19,0,0,0,581,86.06a20.71,20.71,0,0,0,3.84-6.72,23.65,23.65,0,0,0,1.31-7.77,21.39,21.39,0,0,0-.69-5.46,15.19,15.19,0,0,0-2-4.67,10.16,10.16,0,0,0-3.52-3.25,10,10,0,0,0-5-1.21q-4.41,0-6.19,1.94a6.07,6.07,0,0,0-1.79,4.15,5.68,5.68,0,0,0,1.16,3.52,3.64,3.64,0,0,0,3,1.52c.77,0,1.16.28,1.16.84a.92.92,0,0,1-.32.63A6.09,6.09,0,0,1,569,71.05a20,20,0,0,1-5.77.73,10.22,10.22,0,0,1-6.72-2.15,6.5,6.5,0,0,1-2.63-5.2,5.52,5.52,0,0,1,1.89-3.88,17.68,17.68,0,0,1,5.2-3.41,34.93,34.93,0,0,1,7.93-2.42,53,53,0,0,1,10-.89,37.85,37.85,0,0,1,8.72.94,24.33,24.33,0,0,1,6.88,2.68,14.47,14.47,0,0,1,4.56,4.2,9.58,9.58,0,0,1,1.68,5.51A20,20,0,0,1,597.8,77a35.43,35.43,0,0,1-8.08,9.56,44.55,44.55,0,0,1-12.13,7.19,39.39,39.39,0,0,1-15,2.83,41.41,41.41,0,0,1-14.54-2.36,30,30,0,0,1-10.71-6.61,28.69,28.69,0,0,1-6.67-10.08,34.35,34.35,0,0,1-2.31-12.76A30.38,30.38,0,0,1,530,54.88a40.59,40.59,0,0,1,4.1-8.61A48.41,48.41,0,0,1,539.63,39a60.49,60.49,0,0,1,5.94-5.61,37.75,37.75,0,0,1,5.3-3.73A18.12,18.12,0,0,1,554.44,28q-3.57.11-7.61.31c-2.7.14-5.27.34-7.72.58a65.56,65.56,0,0,0-6.51.95,9.68,9.68,0,0,0-3.89,1.41,6.48,6.48,0,0,0-1.89,2.21,20.49,20.49,0,0,0-1.26,2.83A3,3,0,0,1,524.2,36a2,2,0,0,1-.84-1.21,18.78,18.78,0,0,0,2-4c.73-1.82,1.47-3.72,2.2-5.72s1.37-3.83,1.89-5.51.89-2.77,1.1-3.26a2.11,2.11,0,0,1,.95-.21,1.86,1.86,0,0,1,.84.21,8.85,8.85,0,0,0-.32,2,1.31,1.31,0,0,0,1,1.36,37.56,37.56,0,0,0,7.62,1.11q4.56.26,10.55.26Z"/><path d="M655.34,82.7q-1.15,1.26-3.57,3.47A44.54,44.54,0,0,1,646,90.58a39.8,39.8,0,0,1-7.62,3.78,25.18,25.18,0,0,1-8.92,1.57,27.2,27.2,0,0,1-8.4-1.31,21.87,21.87,0,0,1-7.35-4,19.18,19.18,0,0,1-5.2-6.82,23.21,23.21,0,0,1-1.94-9.93,45.35,45.35,0,0,1,.63-8.13,30.64,30.64,0,0,1,1.68-6,21.67,21.67,0,0,1,2.36-4.41A33.21,33.21,0,0,1,613.87,52,23,23,0,0,1,618,48.47a39.38,39.38,0,0,1,5.2-3A29.65,29.65,0,0,1,629,43.28a25,25,0,0,1,6.25-.79c3.78,0,6.73.63,8.87,1.89a5.84,5.84,0,0,1,3.2,5.25,6.58,6.58,0,0,1-1.26,3.88,23,23,0,0,0,2.68-1c1.08-.49,2.19-1,3.31-1.52s2.11-1,3-1.42a12,12,0,0,0,1.73-.94.52.52,0,0,1,.48-.16.33.33,0,0,1,.26.37,4.42,4.42,0,0,1-.53,2.26,4.55,4.55,0,0,1-1.26,1.41q-1.68,1-4.83,2.63t-7,3.31c-2.56,1.15-5.2,2.31-7.93,3.46s-5.3,2.26-7.72,3.31-4.51,2-6.29,2.78-3,1.38-3.63,1.73a15.9,15.9,0,0,0,1.42,6.67,16.72,16.72,0,0,0,3.94,5.41,18.14,18.14,0,0,0,6,3.62,21.74,21.74,0,0,0,7.71,1.31,27.58,27.58,0,0,0,6.83-.78,29,29,0,0,0,5.14-1.79,29.77,29.77,0,0,0,3.31-1.78,8.2,8.2,0,0,1,1.31-.79,1.26,1.26,0,0,1,.84.37A1,1,0,0,1,655.34,82.7Zm-37-16.06c1.19-.42,2.54-.93,4-1.52s3-1.25,4.41-2,2.74-1.36,3.93-2a19.36,19.36,0,0,0,2.73-1.68q1.89-1.36,1.89-4.62a7.91,7.91,0,0,0-.47-2.63,7.49,7.49,0,0,0-1.42-2.46A7.32,7.32,0,0,0,631.19,48a6.76,6.76,0,0,0-3-.68,6.18,6.18,0,0,0-3.15,1,10,10,0,0,0-3.15,3.25,20.86,20.86,0,0,0-2.47,6A35.33,35.33,0,0,0,618.38,66.64Z"/><path d="M686.84,62.33a48.28,48.28,0,0,0-1.47-5.82,15.46,15.46,0,0,0-2.1-4.31,8.34,8.34,0,0,0-3-2.62,9.73,9.73,0,0,0-4.41-.9,10.65,10.65,0,0,0-4.26.84,14.43,14.43,0,0,0-3.36,2,11.16,11.16,0,0,0-2.2,2.31,5,5,0,0,0-.89,1.78.85.85,0,0,1-1,.84,4.18,4.18,0,0,1-2.73-1.05,3.18,3.18,0,0,1-1.26-2.52,2.92,2.92,0,0,1,.21-1.26c1.61-.9,3.57-1.89,5.88-2.94s4.71-2,7.19-2.94a67.91,67.91,0,0,1,7.41-2.25,28.06,28.06,0,0,1,6.61-.9,14.64,14.64,0,0,1,6.77,1.26,8.09,8.09,0,0,1,3.52,3.57,14.94,14.94,0,0,1,1.42,5.41q.26,3.11.47,6.67.32,5.36.84,10.34a55.42,55.42,0,0,0,1.58,8.82,20.62,20.62,0,0,0,2.67,6.2,4.82,4.82,0,0,0,4,2.36,8.62,8.62,0,0,0,2.52-.42,21.14,21.14,0,0,0,2.62-1c.84-.38,1.59-.77,2.26-1.15s1.1-.65,1.31-.79a1.08,1.08,0,0,1,1.16.94,2.11,2.11,0,0,1-.21,1,13.85,13.85,0,0,1-1.58,1c-.91.56-2,1.22-3.36,2s-2.8,1.6-4.41,2.47-3.2,1.7-4.78,2.47-3,1.4-4.35,1.89a9.77,9.77,0,0,1-3.15.73,3.09,3.09,0,0,1-2.37-1.1,9.72,9.72,0,0,1-1.73-2.94,26.69,26.69,0,0,1-1.26-4.25c-.35-1.61-.67-3.29-.94-5q-1.89,1.58-4.83,3.73a58,58,0,0,1-6.41,4,50.41,50.41,0,0,1-7.09,3.2,20.3,20.3,0,0,1-7,1.31,12.44,12.44,0,0,1-4.93-.89,10.42,10.42,0,0,1-3.52-2.36,9.2,9.2,0,0,1-2.1-3.41,12,12,0,0,1-.68-4,7.69,7.69,0,0,1,2-5.51,25.63,25.63,0,0,1,6.36-4.46q2-1.05,5.56-2.78t7.3-3.52q3.72-1.78,6.93-3.41T686.84,62.33Zm3,16.28c-.21-1.19-.42-2.49-.63-3.89s-.42-2.73-.63-4-.41-2.34-.58-3.25-.3-1.51-.37-1.79q-1.68.63-3.78,1.47c-1.4.56-2.8,1.18-4.2,1.84s-2.73,1.33-4,2a35.3,35.3,0,0,0-3.15,1.83A15.52,15.52,0,0,0,668.89,76a5.86,5.86,0,0,0-1.26,3.78,8.52,8.52,0,0,0,1.78,5.36q1.79,2.31,5.57,2.31a12.76,12.76,0,0,0,4.14-.74,29.16,29.16,0,0,0,4-1.68,28.43,28.43,0,0,0,3.21-1.89,15,15,0,0,0,1.89-1.47c.56-.56,1-1,1.31-1.41A2.18,2.18,0,0,0,689.89,78.61Z"/><path d="M811.37,85.85a.43.43,0,0,1,.42.37,3.28,3.28,0,0,1,.11.89.85.85,0,0,1-.21.69,2.77,2.77,0,0,0-.42.36c-.5.28-1.67.88-3.52,1.79s-3.92,1.84-6.2,2.78-4.51,1.79-6.72,2.52a17.31,17.31,0,0,1-5,1.1,6.37,6.37,0,0,1-2.79-.63,1.75,1.75,0,0,1-1.1-2c.14-.56.3-1.4.47-2.52s.33-2.49.48-4.1q.2-3,.47-7t.26-8.82a50.83,50.83,0,0,0-.73-9.4,18.2,18.2,0,0,0-2.1-5.93,7.8,7.8,0,0,0-3.36-3.1,11.33,11.33,0,0,0-4.62-.89,9.52,9.52,0,0,0-4.1.79,16.4,16.4,0,0,0-2.94,1.73A12.21,12.21,0,0,0,766.17,59a20.48,20.48,0,0,0-1.63,7.29c-.07.78-.12,1.54-.16,2.31s-.07,1.61-.1,2.52-.07,1.93-.11,3,0,2.45,0,4q0,6.19,1,8.61a3.47,3.47,0,0,0,3.41,2.41,5.61,5.61,0,0,0,1.05,0c.14,0,.42-.09.84-.16a3.5,3.5,0,0,1,.42.53,1,1,0,0,1-.1,1.15,8.94,8.94,0,0,1-2.52,1.63,37,37,0,0,1-4.41,1.84c-1.62.56-3.19,1-4.73,1.47a14.64,14.64,0,0,1-3.46.63,9,9,0,0,1-2.68-.37c-.81-.24-1.21-.54-1.21-.89a3.38,3.38,0,0,1,.42-1.47,8.8,8.8,0,0,0,.63-2.52c.21-1.33.4-3,.58-5.15s.33-4.53.47-7.29.21-5.76.21-9c0-1.68-.09-3.54-.26-5.57a20.94,20.94,0,0,0-1.31-5.72,11.86,11.86,0,0,0-3.1-4.51,8.1,8.1,0,0,0-5.62-1.84,11.45,11.45,0,0,0-3.78.58,10.53,10.53,0,0,0-2.83,1.41,16.39,16.39,0,0,0-3.94,4.41,17.79,17.79,0,0,0-2.15,7.46c-.15,1.47-.29,3-.42,4.57s-.21,3.37-.21,5.4c0,2.66.06,4.87.21,6.62a17.06,17.06,0,0,0,.73,4.15,4.55,4.55,0,0,0,1.26,2.1,3,3,0,0,0,1.89.57,4,4,0,0,0,1.58-.21c.34-.14.59.07.73.63s.11.91-.1,1.05A11,11,0,0,1,734.51,92c-1.19.59-2.56,1.2-4.09,1.83s-3.12,1.19-4.73,1.68a14.56,14.56,0,0,1-4.09.74,7.4,7.4,0,0,1-2.79-.42c-.66-.28-1-.6-1-1a3,3,0,0,1,.21-.68,9.75,9.75,0,0,0,.31-1q.42-3.26.79-6c.24-1.86.42-3.87.52-6s.19-4.66.27-7.46.1-6.19.1-10.18-.61-6.68-1.84-8.51-2.5-2.73-3.83-2.73a5.73,5.73,0,0,0-1.42.16c-.38.11-.75.19-1.1.26s-.63-.14-.63-.63v-.73q.1-.11,2.1-1.47c1.33-.91,2.9-1.89,4.73-2.94A61.52,61.52,0,0,1,723.7,44a12.57,12.57,0,0,1,4.83-1.31,3.28,3.28,0,0,1,2.15.73,3.42,3.42,0,0,1,.89,2.73c0,.63,0,1.33-.05,2.1s-.07,1.58-.11,2.42-.09,1.66-.15,2.47-.11,1.48-.11,2q1.47-1.36,3.73-3.57a40.8,40.8,0,0,1,5.09-4.2A37,37,0,0,1,746.11,44a17,17,0,0,1,7-1.47A11.1,11.1,0,0,1,761,45.32q3,2.84,3.26,9.87c1.11-1,2.48-2.31,4.09-3.78a44.75,44.75,0,0,1,5.41-4.2,36,36,0,0,1,6.35-3.36,18,18,0,0,1,6.83-1.36q12.17,0,12.18,12.91c0,1.41-.08,3-.21,4.83s-.32,3.73-.53,5.73-.39,4-.52,5.93-.21,3.74-.21,5.35q0,10.92,5.77,10.92a9.25,9.25,0,0,0,2.1-.26q1.15-.25,2.31-.63c.77-.24,1.47-.49,2.1-.73a6.3,6.3,0,0,0,1.37-.69Z"/></g></svg>