<svg id="Mountain" xmlns="http://www.w3.org/2000/svg" xmlns:xlink="http://www.w3.org/1999/xlink" viewBox="0 0 1888.88 346.42"><defs><style>.cls-1{stroke:#000;stroke-miterlimit:10;}.cls-2{mask:url(#mask);}.cls-3{fill:#fff;}.cls-4{filter:url(#luminosity-invert-noclip);}</style><filter id="luminosity-invert-noclip" x="20.84" y="-8432" width="1888.88" height="32766" filterUnits="userSpaceOnUse" color-interpolation-filters="sRGB"><feColorMatrix values="-1 0 0 0 1 0 -1 0 0 1 0 0 -1 0 1 0 0 0 1 0" result="invert"/><feFlood flood-color="#fff" result="bg"/><feBlend in="invert" in2="bg"/></filter><mask id="mask" x="0" y="-8556.08" width="1888.88" height="32766" maskUnits="userSpaceOnUse"><g class="cls-4"/></mask></defs><path class="cls-1" d="M26.26,447.94l81.37-79.65a5.58,5.58,0,0,1,7.77,0l19.89,19.18a5.57,5.57,0,0,0,8.06-.34l54.82-62.65a5.57,5.57,0,0,1,8.5.13l10.88,13.25a5.57,5.57,0,0,0,9.11-.71l2.25-3.81a5.57,5.57,0,0,1,9.49-.19h0a5.58,5.58,0,0,0,9,.57L279.73,295a5.57,5.57,0,0,1,8.07-.5l20.25,18.85a5.57,5.57,0,0,0,8.19-.64l47.32-60.47a5.58,5.58,0,0,1,7.1-1.44l64.09,35.61a5.58,5.58,0,0,0,6.72-1L542.56,180.59a5.57,5.57,0,0,1,8-.08l12,12a5.58,5.58,0,0,0,8-.07l21.34-22.07a5.58,5.58,0,0,1,7.72-.29l38.34,34.18a5.59,5.59,0,0,0,7.36,0l90.33-78.35a5.58,5.58,0,0,1,7.64.32L816.3,201.2a5.58,5.58,0,0,0,8.17-.2l37-41.89a5.58,5.58,0,0,1,8.26-.11l18.68,20.07a5.59,5.59,0,0,0,8.21,0l47.61-52.3a5.57,5.57,0,0,1,8-.28L1038.74,209a5.58,5.58,0,0,0,8.46-.91l10.78-15.9a5.58,5.58,0,0,1,9.17-.09l7.72,10.9a5.57,5.57,0,0,0,9.15-.08l32-46.9a5.57,5.57,0,0,1,9.09-.16L1178.42,228a5.63,5.63,0,0,0,2.81,2l51.38,16.22a5.58,5.58,0,0,0,6.24-2.11L1258.62,216a5.57,5.57,0,0,1,8.57-.67l22.44,23.19a5.57,5.57,0,0,0,6.54,1.08l40.57-20.71a5.57,5.57,0,0,1,5.42.2l39.68,24a5.83,5.83,0,0,1,1.19,1l69.71,74.37a5.58,5.58,0,0,0,8.68-.68l6.42-9.42a5.58,5.58,0,0,1,9.25.05l7,10.48a5.58,5.58,0,0,0,9.14.2l20.49-28a5.58,5.58,0,0,1,9.19.27l8.81,13.7a5.57,5.57,0,0,0,9.44-.1L1569.91,258a5.57,5.57,0,0,1,9.41-.15l38.12,58a5.57,5.57,0,0,0,9.53-.36l6.61-11.9a5.57,5.57,0,0,1,9.13-.89l5.31,6.27a5.45,5.45,0,0,0,1.1,1l27.63,19a5.59,5.59,0,0,0,7-.57L1719.42,294a5.58,5.58,0,0,1,8,.33l70.61,80.12a5.58,5.58,0,0,0,8.56-.23l19.11-24.2a5.57,5.57,0,0,1,9,.38l64.9,98.42a5.57,5.57,0,0,1-4.65,8.64H30.16A5.58,5.58,0,0,1,26.26,447.94Z" transform="translate(-20.84 -124.08)"/><g class="cls-2"><polygon id="overlay" class="cls-3" points="0 346.42 95 253.42 123 280.42 186 208.42 206.12 232.92 217 214.42 226 228.42 267 179.42 296 206.42 350 137.42 422 177.42 530 65.42 550 85.42 579 55.42 625 96.42 723 11.42 804 94.42 849 43.42 876 72.42 931.53 11.42 1027 102.42 1046 74.42 1063 98.42 1104 38.42 1163 118.42 1220 136.42 1246 99.42 1276 130.42 1323 106.42 1366 132.42 1441 212.42 1456 190.42 1472 214.42 1502 173.42 1520 201.42 1558 139.42 1606 212.42 1621 185.42 1632 198.42 1664 220.42 1707.12 178.92 1786 268.42 1814.04 232.92 1888.88 346.42 0 346.42"/></g></svg>